<svg xmlns="http://www.w3.org/2000/svg" xmlns:xlink="http://www.w3.org/1999/xlink" version="1.1" width="1000" height="1000" viewBox="0 0 1000 1000" xml:space="preserve">
<desc>Created with Fabric.js 3.5.0</desc>
<defs>
</defs>
<rect x="0" y="0" width="100%" height="100%" fill="rgba(255,255,255,0)"/>
<g transform="matrix(1.4206 0 0 1.4206 500.011 500.0088)" id="509448">
<path style="stroke: none; stroke-width: 1; stroke-dasharray: none; stroke-linecap: butt; stroke-dashoffset: 0; stroke-linejoin: miter; stroke-miterlimit: 4; is-custom-font: none; font-file-url: none; fill: rgb(255,255,255); fill-rule: nonzero; opacity: 1;" vector-effect="non-scaling-stroke" transform=" translate(-320, -256)" d="M 392.8 1.2 c -17 -4.9 -34.7 5 -39.6 22 l -128 448 c -4.9 17 5 34.7 22 39.6 s 34.7 -5 39.6 -22 l 128 -448 c 4.9 -17 -5 -34.7 -22 -39.6 z m 80.6 120.1 c -12.5 12.5 -12.5 32.8 0 45.3 L 562.7 256 l -89.4 89.4 c -12.5 12.5 -12.5 32.8 0 45.3 s 32.8 12.5 45.3 0 l 112 -112 c 12.5 -12.5 12.5 -32.8 0 -45.3 l -112 -112 c -12.5 -12.5 -32.8 -12.5 -45.3 0 z m -306.7 0 c -12.5 -12.5 -32.8 -12.5 -45.3 0 l -112 112 c -12.5 12.5 -12.5 32.8 0 45.3 l 112 112 c 12.5 12.5 32.8 12.5 45.3 0 s 12.5 -32.8 0 -45.3 L 77.3 256 l 89.4 -89.4 c 12.5 -12.5 12.5 -32.8 0 -45.3 z" stroke-linecap="round"/>
</g>
<g transform="matrix(1.5458 0 0 1.5458 495.1647 499.9919)" id="648868">
<path style="stroke: none; stroke-width: 1; stroke-dasharray: none; stroke-linecap: butt; stroke-dashoffset: 0; stroke-linejoin: miter; stroke-miterlimit: 4; is-custom-font: none; font-file-url: none; fill: rgb(255,255,255); fill-rule: nonzero; opacity: 1;" vector-effect="non-scaling-stroke" transform=" translate(-320, -256)" d="M 5.1 9.2 C 13.3 -1.2 28.4 -3.1 38.8 5.1 l 592 464 c 10.4 8.2 12.3 23.3 4.1 33.7 s -23.3 12.3 -33.7 4.1 L 9.2 42.9 C -1.2 34.7 -3.1 19.6 5.1 9.2 z" stroke-linecap="round"/>
</g>
</svg>